<?xml version="1.0" encoding="utf-8"?>
<!-- Generator: Adobe Illustrator 19.1.0, SVG Export Plug-In . SVG Version: 6.00 Build 0)  -->
<svg version="1.1" id="Layer_1" xmlns="http://www.w3.org/2000/svg" xmlns:xlink="http://www.w3.org/1999/xlink" x="0px" y="0px"
	 viewBox="0 0 40 40" enable-background="new 0 0 40 40" xml:space="preserve">
<path fill="none" d="M31.7,1H8.3C4.3,1,1,4.3,1,8.3v7.8v15.6c0,4,3.3,7.3,7.3,7.3h23.3c4,0,7.3-3.3,7.3-7.3V16.1V8.3
	C39,4.3,35.7,1,31.7,1z M33.8,5.4l0.8,0v0.8v5.6l-6.4,0l0-6.4L33.8,5.4z M14.6,16.1c1.2-1.7,3.2-2.8,5.4-2.8s4.2,1.1,5.4,2.8
	c0.8,1.1,1.3,2.4,1.3,3.9c0,3.7-3,6.7-6.7,6.7s-6.7-3-6.7-6.7C13.3,18.5,13.8,17.2,14.6,16.1z M35.3,31.7c0,2-1.6,3.6-3.6,3.6H8.3
	c-2,0-3.6-1.6-3.6-3.6V16.1h5.7c-0.5,1.2-0.8,2.5-0.8,3.9c0,5.7,4.7,10.4,10.4,10.4c5.7,0,10.4-4.7,10.4-10.4c0-1.4-0.3-2.7-0.8-3.9
	h5.7V31.7z"/>
</svg>
