<?xml version="1.0" encoding="utf-8"?>
<!-- Generator: Adobe Illustrator 19.1.0, SVG Export Plug-In . SVG Version: 6.00 Build 0)  -->
<svg version="1.1" id="Layer_1" xmlns="http://www.w3.org/2000/svg" xmlns:xlink="http://www.w3.org/1999/xlink" x="0px" y="0px"
	 viewBox="0 0 204 42" enable-background="new 0 0 204 42" xml:space="preserve">
<g>
	<g>
		<path id="XMLID_1_" fill="none" d="M68.8,38.1l-0.7-1.8h-4l-0.7,1.8h-1.1l3.2-8h1.2l3.2,8H68.8z M66.1,31.1l-1.7,4.3h3.4
			L66.1,31.1z M76.6,38.1l-2-3.2H73v3.2h-1v-8h3.2c1.5,0,2.5,0.9,2.5,2.4c0,1.4-1,2.2-2.1,2.3l2.1,3.2H76.6z M76.7,32.5
			c0-0.9-0.6-1.5-1.6-1.5H73v3h2.1C76,34,76.7,33.4,76.7,32.5z M80,34.1c0-2.4,1.6-4.1,3.9-4.1c2.4,0,3.9,1.8,3.9,4.1
			c0,1.2-0.4,2.2-1.1,2.9l0.8,0.8l-0.7,0.6l-0.8-0.8c-0.6,0.4-1.3,0.6-2.1,0.6C81.6,38.2,80,36.4,80,34.1z M85.5,36.9l-1.1-1.2
			l0.7-0.6l1.1,1.2c0.5-0.6,0.7-1.3,0.7-2.2c0-1.9-1.1-3.2-2.9-3.2c-1.8,0-2.9,1.4-2.9,3.2c0,1.8,1.1,3.2,2.9,3.2
			C84.6,37.3,85.1,37.2,85.5,36.9z M90.6,35v-4.9h1V35c0,1.5,0.8,2.4,2.3,2.4c1.5,0,2.3-0.9,2.3-2.4v-4.8h1V35c0,2-1.1,3.2-3.2,3.2
			C91.6,38.2,90.6,36.9,90.6,35z M100,38.1v-8h1v8H100z M105.9,38.1V31h-2.5v-0.9h6V31h-2.5v7.1H105.9z M111.8,38.1v-8h5.2V31h-4.2
			v2.6h4.1v0.9h-4.1v2.7h4.2v0.9H111.8z M119.3,34.1c0-2.4,1.8-4.1,4.1-4.1c1.4,0,2.4,0.7,3,1.6l-0.8,0.5c-0.5-0.7-1.3-1.2-2.2-1.2
			c-1.7,0-3.1,1.3-3.1,3.2c0,1.9,1.3,3.2,3.1,3.2c0.9,0,1.7-0.5,2.2-1.2l0.8,0.5c-0.7,0.9-1.6,1.6-3,1.6
			C121.1,38.2,119.3,36.5,119.3,34.1z M130.7,38.1V31h-2.5v-0.9h6V31h-2.5v7.1H130.7z M136.7,35v-4.9h1V35c0,1.5,0.8,2.4,2.3,2.4
			s2.3-0.9,2.3-2.4v-4.8h1V35c0,2-1.1,3.2-3.2,3.2C137.7,38.2,136.7,36.9,136.7,35z M150.7,38.1l-2-3.2h-1.6v3.2h-1v-8h3.2
			c1.5,0,2.5,0.9,2.5,2.4c0,1.4-1,2.2-2.1,2.3l2.1,3.2H150.7z M150.7,32.5c0-0.9-0.6-1.5-1.6-1.5h-2.1v3h2.1
			C150.1,34,150.7,33.4,150.7,32.5z M160.1,38.1l-0.7-1.8h-4l-0.7,1.8h-1.1l3.2-8h1.2l3.2,8H160.1z M157.4,31.1l-1.7,4.3h3.4
			L157.4,31.1z M169.9,38.1l-3.2-8h1.1l2.7,6.9l2.7-6.9h1.1l-3.2,8H169.9z M176.4,38.1v-8h1v8H176.4z M179.9,36.9l0.6-0.8
			c0.5,0.6,1.4,1.1,2.5,1.1c1.4,0,1.9-0.8,1.9-1.4c0-1-1-1.2-2-1.5c-1.3-0.3-2.7-0.7-2.7-2.3c0-1.3,1.2-2.2,2.7-2.2
			c1.2,0,2.2,0.4,2.8,1.1l-0.6,0.7c-0.6-0.7-1.4-1-2.3-1c-1,0-1.6,0.5-1.6,1.3c0,0.8,0.9,1,1.9,1.3c1.3,0.3,2.8,0.8,2.8,2.4
			c0,1.2-0.8,2.3-2.9,2.3C181.5,38.2,180.5,37.7,179.9,36.9z M190.4,38.1V31h-2.5v-0.9h6V31h-2.5v7.1H190.4z M201.1,38.1l-0.7-1.8
			h-4l-0.7,1.8h-1.1l3.2-8h1.2l3.2,8H201.1z M198.5,31.1l-1.7,4.3h3.4L198.5,31.1z"/>
		<g id="XMLID_112_">
			<g id="XMLID_134_">
				<path id="XMLID_136_" fill="none" d="M62.3,13.7c0-3.3,2.2-6,5.7-6s5.7,2.7,5.7,6c0,3.3-2.2,6-5.7,6S62.3,17,62.3,13.7z"/>
				<path id="XMLID_135_" fill="none" d="M71.8,13.7c0-2.3-1.4-4.4-3.8-4.4s-3.8,2.1-3.8,4.4c0,2.4,1.4,4.4,3.8,4.4
					S71.8,16,71.8,13.7z"/>
			</g>
			<g id="XMLID_132_">
				<path id="XMLID_133_" fill="none" d="M83.8,19.4v-7.5c0-2-1-2.7-2.6-2.7c-1.4,0-2.7,0.9-3.4,1.8v8.4h-1.8V7.9h1.8v1.7
					c0.8-1,2.4-2,4.1-2c2.4,0,3.7,1.2,3.7,3.7v8.1H83.8z"/>
			</g>
			<g id="XMLID_130_">
				<path id="XMLID_131_" fill="none" d="M96.5,19.4v-7.5c0-2-1-2.7-2.6-2.7c-1.4,0-2.7,0.9-3.4,1.8v8.4h-1.8V7.9h1.8v1.7
					c0.8-1,2.4-2,4.1-2c2.4,0,3.7,1.2,3.7,3.7v8.1H96.5z"/>
			</g>
			<g id="XMLID_127_">
				<path id="XMLID_129_" fill="none" d="M101,5.1c0-0.7,0.5-1.2,1.2-1.2c0.7,0,1.2,0.5,1.2,1.2c0,0.7-0.5,1.2-1.2,1.2
					C101.6,6.3,101,5.8,101,5.1z"/>
				<rect id="XMLID_128_" x="101.4" y="7.9" fill="none" width="1.8" height="11.5"/>
			</g>
			<g id="XMLID_125_">
				<path id="XMLID_126_" fill="none" d="M105.2,17.9l0.9-1.3c0.8,0.9,2.2,1.6,3.8,1.6c1.8,0,2.7-0.8,2.7-2c0-1.3-1.4-1.6-3-2
					c-2-0.5-4.2-1-4.2-3.4c0-1.8,1.5-3.3,4.3-3.3c2,0,3.3,0.7,4.3,1.7l-0.8,1.2c-0.7-0.8-2-1.5-3.4-1.5c-1.6,0-2.5,0.8-2.5,1.8
					c0,1.1,1.3,1.4,2.8,1.8c2,0.5,4.3,1,4.3,3.6c0,1.9-1.5,3.5-4.5,3.5C108,19.7,106.4,19.1,105.2,17.9z"/>
			</g>
			<g id="XMLID_123_">
				<rect id="XMLID_124_" x="122.5" y="3.6" fill="none" width="1.8" height="15.9"/>
			</g>
			<g id="XMLID_121_">
				<path id="XMLID_122_" fill="none" d="M135.4,19.4v-1.6c-0.9,1-2.4,1.9-4.1,1.9c-2.4,0-3.7-1.2-3.7-3.7V7.9h1.8v7.6
					c0,2,1,2.6,2.6,2.6c1.4,0,2.7-0.8,3.4-1.7V7.9h1.8v11.5H135.4z"/>
			</g>
			<g id="XMLID_118_">
				<path id="XMLID_120_" fill="none" d="M139.6,13.7c0-3.7,2.1-6,5.1-6c1.6,0,3,0.8,3.9,2V7.9h1.8v15.9h-1.8v-6.1
					c-0.9,1.3-2.3,2-3.9,2C141.7,19.7,139.6,17.4,139.6,13.7z"/>
				<path id="XMLID_119_" fill="none" d="M148.5,16.3v-5.2c-0.6-1-2-1.8-3.4-1.8c-2.3,0-3.7,1.9-3.7,4.4c0,2.5,1.4,4.4,3.7,4.4
					C146.5,18.1,148,17.3,148.5,16.3z"/>
			</g>
			<g id="XMLID_116_">
				<path id="XMLID_117_" fill="none" d="M160.9,19.4v-1.6c-0.9,1-2.4,1.9-4.1,1.9c-2.4,0-3.7-1.2-3.7-3.7V7.9h1.8v7.6
					c0,2,1,2.6,2.6,2.6c1.4,0,2.7-0.8,3.4-1.7V7.9h1.8v11.5H160.9z"/>
			</g>
			<g id="XMLID_113_">
				<path id="XMLID_115_" fill="none" d="M165.1,13.7c0-3.3,2.4-6,5.7-6c3.5,0,5.5,2.7,5.5,6.2v0.5H167c0.1,2.2,1.7,4,4.1,4
					c1.3,0,2.6-0.5,3.5-1.5l0.9,1.2c-1.1,1.1-2.7,1.8-4.6,1.8C167.6,19.7,165.1,17.3,165.1,13.7z"/>
				<path id="XMLID_114_" fill="none" d="M170.7,9.1c-2.5,0-3.7,2.1-3.8,3.8h7.5C174.5,11.2,173.4,9.1,170.7,9.1z"/>
			</g>
		</g>
	</g>
	<polygon id="XMLID_111_" fill="none" points="47.7,40.9 24.7,1.1 1.7,40.9 	"/>
</g>
</svg>
