<?xml version="1.0" encoding="utf-8"?>
<!-- Generator: Adobe Illustrator 19.1.0, SVG Export Plug-In . SVG Version: 6.00 Build 0)  -->
<svg version="1.1" id="Layer_1" xmlns="http://www.w3.org/2000/svg" xmlns:xlink="http://www.w3.org/1999/xlink" x="0px" y="0px"
	 viewBox="0 0 170.4 150" enable-background="new 0 0 170.4 150" xml:space="preserve">
<path id="XMLID_137_" fill="none" d="M16.8,120.4c0-4,2.6-7.2,6.8-7.2s6.8,3.2,6.8,7.2c0,4-2.6,7.3-6.8,7.3S16.8,124.4,16.8,120.4z
	 M28.2,120.4c0-2.8-1.6-5.3-4.6-5.3s-4.6,2.5-4.6,5.3c0,2.8,1.7,5.3,4.6,5.3S28.2,123.3,28.2,120.4z M42.7,127.3v-9
	c0-2.4-1.2-3.2-3.1-3.2c-1.7,0-3.3,1-4.1,2.1v10.1h-2.1v-13.8h2.1v2c1-1.1,2.9-2.3,4.9-2.3c2.9,0,4.4,1.5,4.4,4.5v9.7H42.7z
	 M57.8,127.3v-9c0-2.4-1.2-3.2-3.1-3.2c-1.7,0-3.3,1-4.1,2.1v10.1h-2.1v-13.8h2.1v2c1-1.1,2.9-2.3,4.9-2.3c2.9,0,4.4,1.5,4.4,4.5
	v9.7H57.8z M63.3,110.1c0-0.8,0.7-1.5,1.4-1.5c0.8,0,1.5,0.7,1.5,1.5c0,0.8-0.7,1.4-1.5,1.4C64,111.6,63.3,110.9,63.3,110.1z
	 M63.7,127.3v-13.8h2.1v13.8H63.7z M68.3,125.5l1.1-1.5c0.9,1.1,2.7,2,4.5,2c2.1,0,3.3-1,3.3-2.4c0-1.5-1.7-1.9-3.5-2.4
	c-2.3-0.5-5-1.2-5-4c0-2.1,1.9-4,5.1-4c2.3,0,4,0.9,5.1,2l-1,1.5c-0.8-1-2.3-1.7-4.1-1.7c-1.9,0-3.1,0.9-3.1,2.2
	c0,1.3,1.6,1.7,3.4,2.1c2.4,0.5,5.2,1.2,5.2,4.3c0,2.3-1.9,4.2-5.4,4.2C71.7,127.7,69.7,127,68.3,125.5z M89,127.3v-19h2.1v19H89z
	 M104.6,127.3v-1.9c-1.1,1.2-2.9,2.3-4.9,2.3c-2.9,0-4.4-1.4-4.4-4.4v-9.7h2.1v9.1c0,2.4,1.2,3.1,3.1,3.1c1.7,0,3.3-1,4.1-2.1v-10.1
	h2.1v13.8H104.6z M109.6,120.4c0-4.5,2.5-7.2,6.1-7.2c1.9,0,3.7,1,4.6,2.4v-2.1h2.1v19h-2.1v-7.3c-1.1,1.5-2.8,2.4-4.6,2.4
	C112.1,127.7,109.6,124.9,109.6,120.4z M120.3,123.5v-6.2c-0.7-1.2-2.4-2.2-4.1-2.2c-2.8,0-4.4,2.3-4.4,5.3c0,3.1,1.6,5.3,4.4,5.3
	C117.9,125.8,119.6,124.7,120.3,123.5z M135.1,127.3v-1.9c-1.1,1.2-2.9,2.3-4.9,2.3c-2.9,0-4.4-1.4-4.4-4.4v-9.7h2.1v9.1
	c0,2.4,1.2,3.1,3.1,3.1c1.7,0,3.3-1,4.1-2.1v-10.1h2.1v13.8H135.1z M140.2,120.4c0-4,2.9-7.2,6.8-7.2c4.2,0,6.6,3.3,6.6,7.4v0.5
	h-11.2c0.2,2.6,2,4.8,5,4.8c1.6,0,3.2-0.6,4.3-1.7l1,1.4c-1.4,1.4-3.2,2.1-5.5,2.1C143.1,127.7,140.2,124.7,140.2,120.4z M146.9,115
	c-2.9,0-4.4,2.5-4.5,4.6h9.1C151.5,117.5,150.1,115,146.9,115z M142.5,100.2L85.2,1.1l-57.3,99.2H142.5z M9,148.5l-0.8-2.1H3.4
	l-0.8,2.1H1.2L5,139h1.5l3.9,9.5H9z M5.8,140.2l-2,5.1h4.1L5.8,140.2z M18.4,148.5l-2.4-3.8h-1.9v3.8h-1.2V139h3.8
	c1.7,0,3,1.1,3,2.9c0,1.7-1.2,2.7-2.5,2.8l2.6,3.9H18.4z M18.5,141.8c0-1.1-0.8-1.8-1.9-1.8h-2.5v3.7h2.5
	C17.7,143.7,18.5,142.9,18.5,141.8z M22.5,143.7c0-2.8,1.9-4.9,4.7-4.9c2.8,0,4.7,2.1,4.7,4.9c0,1.4-0.5,2.6-1.3,3.5l0.9,1l-0.8,0.7
	l-0.9-1c-0.7,0.5-1.6,0.7-2.6,0.7C24.4,148.7,22.5,146.6,22.5,143.7z M29.1,147.1l-1.4-1.5l0.8-0.7l1.3,1.5c0.6-0.7,0.9-1.6,0.9-2.7
	c0-2.2-1.4-3.9-3.5-3.9c-2.1,0-3.5,1.6-3.5,3.9c0,2.2,1.4,3.9,3.5,3.9C27.9,147.6,28.5,147.4,29.1,147.1z M35.1,144.8V139h1.2v5.8
	c0,1.7,0.9,2.8,2.7,2.8s2.7-1.1,2.7-2.8V139h1.2v5.8c0,2.4-1.3,3.9-3.9,3.9S35.1,147.1,35.1,144.8z M46.4,148.5V139h1.2v9.5H46.4z
	 M53.5,148.5V140h-3V139h7.2v1.1h-3v8.5H53.5z M60.6,148.5V139h6.3v1.1h-5.1v3.1h5v1.1h-5v3.3h5.1v1.1H60.6z M69.6,143.7
	c0-2.9,2.2-4.9,4.9-4.9c1.7,0,2.9,0.8,3.6,1.9l-1,0.6c-0.5-0.8-1.5-1.4-2.6-1.4c-2.1,0-3.7,1.6-3.7,3.9c0,2.3,1.6,3.9,3.7,3.9
	c1.1,0,2.1-0.6,2.6-1.4l1,0.6c-0.8,1.1-1.9,1.9-3.6,1.9C71.8,148.7,69.6,146.7,69.6,143.7z M83.4,148.5V140h-3V139h7.2v1.1h-3v8.5
	H83.4z M90.4,144.8V139h1.2v5.8c0,1.7,0.9,2.8,2.7,2.8c1.8,0,2.7-1.1,2.7-2.8V139h1.2v5.8c0,2.4-1.3,3.9-3.9,3.9
	C91.7,148.7,90.4,147.1,90.4,144.8z M107.3,148.5l-2.4-3.8h-1.9v3.8h-1.2V139h3.8c1.7,0,3,1.1,3,2.9c0,1.7-1.2,2.7-2.5,2.8l2.6,3.9
	H107.3z M107.4,141.8c0-1.1-0.8-1.8-1.9-1.8h-2.5v3.7h2.5C106.6,143.7,107.4,142.9,107.4,141.8z M118.6,148.5l-0.8-2.1H113l-0.8,2.1
	h-1.4l3.8-9.5h1.5l3.9,9.5H118.6z M115.3,140.2l-2,5.1h4.1L115.3,140.2z M130.3,148.5l-3.8-9.5h1.4l3.2,8.2l3.2-8.2h1.4l-3.9,9.5
	H130.3z M138.1,148.5V139h1.2v9.5H138.1z M142.3,147.2l0.7-0.9c0.6,0.7,1.7,1.4,3,1.4c1.7,0,2.2-0.9,2.2-1.6c0-1.1-1.2-1.5-2.4-1.8
	c-1.5-0.4-3.2-0.8-3.2-2.7c0-1.6,1.4-2.6,3.3-2.6c1.5,0,2.6,0.5,3.4,1.3l-0.7,0.9c-0.7-0.8-1.7-1.1-2.8-1.1c-1.1,0-2,0.6-2,1.5
	c0,1,1.1,1.2,2.3,1.6c1.6,0.4,3.3,0.9,3.3,2.9c0,1.4-0.9,2.8-3.5,2.8C144.3,148.7,143.1,148,142.3,147.2z M154.9,148.5V140h-3V139
	h7.2v1.1h-3v8.5H154.9z M167.8,148.5l-0.8-2.1h-4.8l-0.8,2.1H160l3.8-9.5h1.5l3.9,9.5H167.8z M164.6,140.2l-2,5.1h4.1L164.6,140.2z"
	/>
</svg>
