<?xml version="1.0" encoding="utf-8"?>
<!-- Generator: Adobe Illustrator 19.1.0, SVG Export Plug-In . SVG Version: 6.00 Build 0)  -->
<svg version="1.1" id="Layer_1" xmlns="http://www.w3.org/2000/svg" xmlns:xlink="http://www.w3.org/1999/xlink" x="0px" y="0px"
	 viewBox="0 0 204 42" enable-background="new 0 0 204 42" xml:space="preserve">
<path fill="none" d="M68.8,38.1l-0.7-1.8h-4l-0.7,1.8h-1.1l3.2-8h1.2l3.2,8H68.8z M66.1,31.1l-1.7,4.3h3.4L66.1,31.1z M76.6,38.1
	l-2-3.2H73v3.2h-1v-8h3.2c1.5,0,2.5,0.9,2.5,2.4c0,1.4-1,2.2-2.1,2.3l2.1,3.2H76.6z M76.7,32.5c0-0.9-0.6-1.5-1.6-1.5H73v3h2.1
	C76,34,76.7,33.4,76.7,32.5z M80,34.1c0-2.4,1.6-4.1,3.9-4.1c2.4,0,3.9,1.8,3.9,4.1c0,1.2-0.4,2.2-1.1,2.9l0.8,0.8l-0.7,0.6
	l-0.8-0.8c-0.6,0.4-1.3,0.6-2.1,0.6C81.6,38.2,80,36.4,80,34.1z M85.5,36.9l-1.1-1.2l0.7-0.6l1.1,1.2c0.5-0.6,0.7-1.3,0.7-2.2
	c0-1.9-1.1-3.2-2.9-3.2c-1.8,0-2.9,1.4-2.9,3.2c0,1.8,1.1,3.2,2.9,3.2C84.6,37.3,85.1,37.2,85.5,36.9z M90.6,35v-4.9h1V35
	c0,1.5,0.8,2.4,2.3,2.4c1.5,0,2.3-0.9,2.3-2.4v-4.8h1V35c0,2-1.1,3.2-3.2,3.2C91.6,38.2,90.6,36.9,90.6,35z M100,38.1v-8h1v8H100z
	 M105.9,38.1V31h-2.5v-0.9h6V31h-2.5v7.1H105.9z M111.8,38.1v-8h5.2V31h-4.2v2.6h4.1v0.9h-4.1v2.7h4.2v0.9H111.8z M119.3,34.1
	c0-2.4,1.8-4.1,4.1-4.1c1.4,0,2.4,0.7,3,1.6l-0.8,0.5c-0.5-0.7-1.3-1.2-2.2-1.2c-1.7,0-3.1,1.3-3.1,3.2c0,1.9,1.3,3.2,3.1,3.2
	c0.9,0,1.7-0.5,2.2-1.2l0.8,0.5c-0.7,0.9-1.6,1.6-3,1.6C121.1,38.2,119.3,36.5,119.3,34.1z M130.7,38.1V31h-2.5v-0.9h6V31h-2.5v7.1
	H130.7z M136.7,35v-4.9h1V35c0,1.5,0.8,2.4,2.3,2.4s2.3-0.9,2.3-2.4v-4.8h1V35c0,2-1.1,3.2-3.2,3.2C137.7,38.2,136.7,36.9,136.7,35z
	 M150.7,38.1l-2-3.2h-1.6v3.2h-1v-8h3.2c1.5,0,2.5,0.9,2.5,2.4c0,1.4-1,2.2-2.1,2.3l2.1,3.2H150.7z M150.7,32.5
	c0-0.9-0.6-1.5-1.6-1.5h-2.1v3h2.1C150.1,34,150.7,33.4,150.7,32.5z M160.1,38.1l-0.7-1.8h-4l-0.7,1.8h-1.1l3.2-8h1.2l3.2,8H160.1z
	 M157.4,31.1l-1.7,4.3h3.4L157.4,31.1z M169.9,38.1l-3.2-8h1.1l2.7,6.9l2.7-6.9h1.1l-3.2,8H169.9z M176.4,38.1v-8h1v8H176.4z
	 M179.9,36.9l0.6-0.8c0.5,0.6,1.4,1.1,2.5,1.1c1.4,0,1.9-0.8,1.9-1.4c0-1-1-1.2-2-1.5c-1.3-0.3-2.7-0.7-2.7-2.3
	c0-1.3,1.2-2.2,2.7-2.2c1.2,0,2.2,0.4,2.8,1.1l-0.6,0.7c-0.6-0.7-1.4-1-2.3-1c-1,0-1.6,0.5-1.6,1.3c0,0.8,0.9,1,1.9,1.3
	c1.3,0.3,2.8,0.8,2.8,2.4c0,1.2-0.8,2.3-2.9,2.3C181.5,38.2,180.5,37.7,179.9,36.9z M190.4,38.1V31h-2.5v-0.9h6V31h-2.5v7.1H190.4z
	 M201.1,38.1l-0.7-1.8h-4l-0.7,1.8h-1.1l3.2-8h1.2l3.2,8H201.1z M198.5,31.1l-1.7,4.3h3.4L198.5,31.1z M68,7.7c-3.5,0-5.7,2.7-5.7,6
	c0,3.3,2.2,6,5.7,6c3.5,0,5.7-2.7,5.7-6C73.7,10.3,71.5,7.7,68,7.7z M68,18.1c-2.5,0-3.8-2.1-3.8-4.4c0-2.3,1.4-4.4,3.8-4.4
	c2.5,0,3.8,2.1,3.8,4.4C71.8,16,70.4,18.1,68,18.1z M85.6,19.4v-8.1c0-2.5-1.3-3.7-3.7-3.7c-1.7,0-3.3,1-4.1,2V7.9h-1.8v11.5h1.8V11
	c0.7-0.9,2-1.8,3.4-1.8c1.5,0,2.6,0.6,2.6,2.7v7.5H85.6z M98.3,19.4v-8.1c0-2.5-1.3-3.7-3.7-3.7c-1.7,0-3.3,1-4.1,2V7.9h-1.8v11.5
	h1.8V11c0.7-0.9,2-1.8,3.4-1.8c1.5,0,2.6,0.6,2.6,2.7v7.5H98.3z M102.2,6.3c0.7,0,1.2-0.5,1.2-1.2c0-0.7-0.5-1.2-1.2-1.2
	c-0.6,0-1.2,0.5-1.2,1.2C101,5.8,101.6,6.3,102.2,6.3z M103.1,19.4V7.9h-1.8v11.5H103.1z M109.9,19.7c3,0,4.5-1.5,4.5-3.5
	c0-2.5-2.3-3.1-4.3-3.6c-1.5-0.4-2.8-0.7-2.8-1.8c0-1,1-1.8,2.5-1.8c1.5,0,2.7,0.6,3.4,1.5l0.8-1.2c-0.9-0.9-2.3-1.7-4.3-1.7
	c-2.7,0-4.3,1.5-4.3,3.3c0,2.4,2.2,2.9,4.2,3.4c1.5,0.4,3,0.7,3,2c0,1.1-1,2-2.7,2c-1.6,0-3-0.8-3.8-1.6l-0.9,1.3
	C106.4,19.1,108,19.7,109.9,19.7z M124.3,19.4V3.6h-1.8v15.9H124.3z M137.2,19.4V7.9h-1.8v8.4c-0.7,0.9-2,1.7-3.4,1.7
	c-1.5,0-2.6-0.6-2.6-2.6V7.9h-1.8v8.1c0,2.5,1.3,3.7,3.7,3.7c1.7,0,3.2-0.9,4.1-1.9v1.6H137.2z M148.5,7.9v1.7c-0.8-1.2-2.2-2-3.9-2
	c-3,0-5.1,2.3-5.1,6c0,3.7,2.1,6,5.1,6c1.5,0,2.9-0.7,3.9-2v6.1h1.8V7.9H148.5z M148.5,16.3c-0.6,1-2,1.9-3.4,1.9
	c-2.3,0-3.7-1.9-3.7-4.4c0-2.5,1.4-4.4,3.7-4.4c1.4,0,2.8,0.8,3.4,1.8V16.3z M162.7,19.4V7.9h-1.8v8.4c-0.7,0.9-2,1.7-3.4,1.7
	c-1.5,0-2.6-0.6-2.6-2.6V7.9h-1.8v8.1c0,2.5,1.3,3.7,3.7,3.7c1.7,0,3.2-0.9,4.1-1.9v1.6H162.7z M176.3,13.8c0-3.5-2-6.2-5.5-6.2
	c-3.3,0-5.7,2.7-5.7,6c0,3.6,2.5,6,5.9,6c1.9,0,3.4-0.6,4.6-1.8l-0.9-1.2c-0.9,0.9-2.2,1.5-3.5,1.5c-2.5,0-4-1.8-4.1-4h9.3V13.8z
	 M167,13c0.1-1.8,1.3-3.8,3.8-3.8c2.6,0,3.8,2.1,3.8,3.8H167z M47.7,40.9l-23-39.8l-23,39.8H47.7z"/>
</svg>
