<?xml version="1.0" encoding="utf-8"?>
<!-- Generator: Adobe Illustrator 19.1.0, SVG Export Plug-In . SVG Version: 6.00 Build 0)  -->
<svg version="1.1" id="Layer_1" xmlns="http://www.w3.org/2000/svg" xmlns:xlink="http://www.w3.org/1999/xlink" x="0px" y="0px"
	 viewBox="0 0 40 36" enable-background="new 0 0 40 36" xml:space="preserve">
<path fill="none" d="M37.7,9.1H2.3C1.6,9.1,1,8.4,1,7.5S1.6,6,2.3,6h35.5C38.4,6,39,6.7,39,7.5S38.4,9.1,37.7,9.1z M39,18
	c0-0.8-0.6-1.5-1.3-1.5H2.3C1.6,16.5,1,17.2,1,18s0.6,1.5,1.3,1.5h35.5C38.4,19.5,39,18.8,39,18z M39,28.5c0-0.8-0.6-1.5-1.3-1.5
	H2.3c-0.7,0-1.3,0.7-1.3,1.5C1,29.3,1.6,30,2.3,30h35.5C38.4,30,39,29.3,39,28.5z"/>
</svg>
